<svg width="26" height="27" viewBox="0 0 26 27" fill="none" xmlns="http://www.w3.org/2000/svg">
<path fill-rule="evenodd" clip-rule="evenodd" d="M13.0014 0.615234C9.52509 0.615234 9.08882 0.630435 7.72347 0.692569C6.36079 0.754969 5.43065 0.970705 4.61678 1.28724C3.7749 1.61418 3.06076 2.05152 2.34928 2.76326C1.63728 3.47473 1.19994 4.18887 0.871936 5.03048C0.554599 5.84462 0.338597 6.77503 0.277263 8.13718C0.216195 9.50253 0.200195 9.93906 0.200195 13.4154C0.200195 16.8917 0.215662 17.3266 0.277529 18.692C0.340197 20.0546 0.555932 20.9848 0.872202 21.7987C1.19941 22.6405 1.63674 23.3547 2.34848 24.0661C3.05969 24.7782 3.77383 25.2166 4.61517 25.5435C5.42958 25.86 6.35999 26.0758 7.72241 26.1382C9.08775 26.2003 9.52376 26.2155 12.9998 26.2155C16.4764 26.2155 16.9113 26.2003 18.2767 26.1382C19.6393 26.0758 20.5705 25.86 21.385 25.5435C22.2266 25.2166 22.9396 24.7782 23.6508 24.0661C24.3628 23.3547 24.8002 22.6405 25.1282 21.7989C25.4429 20.9848 25.6589 20.0544 25.7229 18.6922C25.7842 17.3269 25.8002 16.8917 25.8002 13.4154C25.8002 9.93906 25.7842 9.50279 25.7229 8.13745C25.6589 6.77476 25.4429 5.84462 25.1282 5.03075C24.8002 4.18887 24.3628 3.47473 23.6508 2.76326C22.9388 2.05125 22.2268 1.61391 21.3842 1.28724C20.5681 0.970705 19.6375 0.754969 18.2748 0.692569C16.9094 0.630435 16.4748 0.615234 12.9974 0.615234H13.0014ZM11.8531 2.92189C12.1939 2.92136 12.5741 2.92189 13.0013 2.92189C16.419 2.92189 16.824 2.93416 18.1737 2.99549C19.4217 3.05256 20.099 3.26109 20.5502 3.43629C21.1476 3.6683 21.5734 3.94563 22.0212 4.39364C22.4692 4.84164 22.7465 5.26831 22.979 5.86565C23.1542 6.31632 23.363 6.99366 23.4198 8.24168C23.4812 9.59103 23.4945 9.99636 23.4945 13.4124C23.4945 16.8284 23.4812 17.2338 23.4198 18.5831C23.3628 19.8311 23.1542 20.5085 22.979 20.9591C22.747 21.5565 22.4692 21.9818 22.0212 22.4296C21.5732 22.8776 21.1478 23.1549 20.5502 23.3869C20.0995 23.5629 19.4217 23.7709 18.1737 23.828C16.8243 23.8893 16.419 23.9026 13.0013 23.9026C9.58344 23.9026 9.17837 23.8893 7.82902 23.828C6.58101 23.7704 5.90367 23.5618 5.4522 23.3866C4.85486 23.1546 4.42818 22.8773 3.98018 22.4293C3.53218 21.9813 3.25484 21.5557 3.0223 20.9581C2.8471 20.5074 2.6383 19.8301 2.5815 18.5821C2.52016 17.2327 2.5079 16.8274 2.5079 13.4092C2.5079 9.99103 2.52016 9.58783 2.5815 8.23848C2.63857 6.99046 2.8471 6.31312 3.0223 5.86192C3.25431 5.26458 3.53218 4.83791 3.98018 4.3899C4.42818 3.9419 4.85486 3.66456 5.4522 3.43203C5.9034 3.25603 6.58101 3.04802 7.82902 2.99069C9.00983 2.93736 9.46744 2.92136 11.8531 2.91869V2.92189ZM19.834 5.04725C18.9859 5.04725 18.2979 5.73446 18.2979 6.58273C18.2979 7.43074 18.9859 8.11875 19.834 8.11875C20.682 8.11875 21.37 7.43074 21.37 6.58273C21.37 5.73472 20.682 5.04725 19.834 5.04725ZM13.0014 6.84193C9.37125 6.84193 6.42801 9.78516 6.42801 13.4153C6.42801 17.0455 9.37125 19.9874 13.0014 19.9874C16.6316 19.9874 19.5738 17.0455 19.5738 13.4153C19.5738 9.78516 16.6316 6.84193 13.0014 6.84193ZM13.0014 9.14862C15.3577 9.14862 17.2681 11.0588 17.2681 13.4153C17.2681 15.7716 15.3577 17.682 13.0014 17.682C10.6448 17.682 8.73466 15.7716 8.73466 13.4153C8.73466 11.0588 10.6448 9.14862 13.0014 9.14862Z" fill="#333333"/>
</svg>
