<svg width="24" height="21" viewBox="0 0 24 21" fill="none" xmlns="http://www.w3.org/2000/svg">
<path fill-rule="evenodd" clip-rule="evenodd" d="M11.2812 5.92293L11.3316 6.75338L10.4922 6.6517C7.43686 6.26189 4.76765 4.93994 2.50134 2.71975L1.39336 1.61813L1.10798 2.43163C0.503625 4.24507 0.889738 6.1602 2.1488 7.44825C2.8203 8.16007 2.66921 8.26176 1.51088 7.83806C1.10798 7.70247 0.755438 7.60079 0.721863 7.65163C0.60435 7.77027 1.00725 9.31254 1.32621 9.92267C1.76269 10.7701 2.65243 11.6005 3.6261 12.092L4.44869 12.4818L3.47501 12.4988C2.53491 12.4988 2.50134 12.5157 2.60206 12.8716C2.93781 13.9733 4.26403 15.1427 5.74133 15.6511L6.78215 16.007L5.87563 16.5494C4.53263 17.329 2.9546 17.7696 1.37658 17.8035C0.621138 17.8205 0 17.8882 0 17.9391C0 18.1086 2.04808 19.0577 3.23999 19.4305C6.81573 20.5321 11.063 20.0576 14.2526 18.1764C16.5189 16.8375 18.7852 14.1766 19.8428 11.6005C20.4136 10.2277 20.9844 7.71942 20.9844 6.51611C20.9844 5.7365 21.0347 5.63481 21.9748 4.70267C22.5288 4.16033 23.0492 3.56715 23.15 3.39767C23.3178 3.07566 23.3011 3.07566 22.4449 3.36378C21.018 3.87222 20.8165 3.80442 21.5216 3.04176C22.042 2.49943 22.6631 1.51644 22.6631 1.22832C22.6631 1.17748 22.4113 1.26222 22.1259 1.41475C21.8238 1.58423 21.1523 1.83845 20.6486 1.99098L19.7421 2.2791L18.9195 1.71982C18.4663 1.41475 17.8283 1.07579 17.4926 0.974102C16.6364 0.736829 15.327 0.770725 14.5548 1.04189C12.4563 1.80456 11.1301 3.77053 11.2812 5.92293Z" fill="#333333"/>
</svg>
