<svg width="26" height="20" viewBox="0 0 26 20" fill="none" xmlns="http://www.w3.org/2000/svg">
<path fill-rule="evenodd" clip-rule="evenodd" d="M23.0018 1.16505C24.1033 1.46732 24.9708 2.35794 25.2652 3.48894C25.8002 5.53876 25.8002 9.81572 25.8002 9.81572C25.8002 9.81572 25.8002 14.0925 25.2652 16.1425C24.9708 17.2735 24.1033 18.1641 23.0018 18.4665C21.0056 19.0157 13.0002 19.0157 13.0002 19.0157C13.0002 19.0157 4.99481 19.0157 2.99845 18.4665C1.89692 18.1641 1.02943 17.2735 0.735032 16.1425C0.200195 14.0925 0.200195 9.81572 0.200195 9.81572C0.200195 9.81572 0.200195 5.53876 0.735032 3.48894C1.02943 2.35794 1.89692 1.46732 2.99845 1.16505C4.99481 0.615723 13.0002 0.615723 13.0002 0.615723C13.0002 0.615723 21.0056 0.615723 23.0018 1.16505ZM10.6002 6.21564V14.2156L17.0002 10.2158L10.6002 6.21564Z" fill="#333333"/>
</svg>
